<?xml version="1.0" standalone="no"?>
<!DOCTYPE svg PUBLIC "-//W3C//DTD SVG 20010904//EN"
 "http://www.w3.org/TR/2001/REC-SVG-20010904/DTD/svg10.dtd">
<svg version="1.0" xmlns="http://www.w3.org/2000/svg"
 width="1280.000000pt" height="640.000000pt" viewBox="0 0 1280.000000 640.000000"
 preserveAspectRatio="xMidYMid meet">
<metadata>
Created by potrace 1.15, written by Peter Selinger 2001-2017
</metadata>
<g transform="translate(0.000000,640.000000) scale(0.100000,-0.100000)"
fill="#000000" stroke="none">
<path d="M4817 4862 l-177 -177 0 -181 0 -181 -242 -6 c-133 -4 -283 -7 -335
-7 l-93 0 0 187 0 187 -173 173 c-95 95 -179 173 -187 173 -8 0 -94 -80 -192
-178 l-178 -178 0 -182 0 -182 -345 0 -345 0 0 188 0 187 -173 173 c-110 109
-180 172 -192 172 -13 0 -81 -61 -188 -168 l-167 -168 0 -192 0 -192 -344 0
-345 0 -3 195 -3 196 -166 164 c-102 102 -173 165 -185 165 -12 0 -87 -67
-197 -178 l-177 -178 0 -182 0 -182 -163 0 c-146 0 -166 -2 -180 -18 -15 -16
-17 -53 -17 -311 0 -182 4 -300 10 -312 10 -18 23 -19 180 -19 l170 0 0 -643
0 -644 -97 -6 c-54 -4 -141 -7 -193 -7 -61 0 -100 -4 -108 -12 -17 -17 -17
-619 0 -636 9 -9 68 -12 205 -12 l193 0 0 -149 c0 -123 3 -152 16 -165 13 -14
59 -16 348 -16 267 0 336 3 345 13 6 8 14 78 17 160 l7 147 344 0 343 0 0
-148 c0 -102 4 -152 12 -160 17 -17 679 -17 696 0 8 8 12 58 12 160 l0 148
350 0 350 0 0 -148 c0 -102 4 -152 12 -160 18 -18 667 -17 691 1 14 10 17 35
19 162 l3 150 333 3 332 2 0 -148 c0 -102 4 -152 12 -160 18 -18 681 -17 696
1 7 8 13 72 14 158 l3 144 348 3 347 2 0 -148 c0 -102 4 -152 12 -160 17 -17
679 -17 696 0 8 8 12 58 12 160 l0 148 346 -2 346 -3 -1 -131 c-1 -71 3 -142
8 -157 l11 -27 344 0 c331 0 346 1 356 19 5 11 10 83 10 160 l0 141 340 0 340
0 0 -148 c0 -102 4 -152 12 -160 17 -17 679 -17 696 0 8 8 12 58 12 160 l0
148 350 0 350 0 0 -154 c0 -131 2 -155 16 -160 9 -3 165 -6 348 -6 245 0 335
3 344 12 8 8 12 58 12 160 l0 148 345 0 345 0 0 -141 c0 -77 5 -149 10 -160
10 -18 25 -19 355 -19 330 0 345 1 355 19 5 11 10 82 10 160 l0 140 170 3
c139 2 173 6 180 18 15 23 13 623 -2 638 -8 8 -63 12 -180 12 l-168 0 0 645 0
645 156 0 c88 0 164 4 175 10 18 10 19 24 19 323 0 230 -3 316 -12 325 -8 8
-62 12 -175 12 l-163 0 0 182 0 182 -172 173 c-113 113 -179 173 -193 173 -14
0 -80 -60 -193 -173 l-172 -173 0 -182 0 -182 -344 0 -345 0 -3 190 -3 191
-171 169 c-101 101 -178 170 -189 170 -12 0 -89 -70 -192 -173 l-173 -173 0
-187 0 -187 -345 0 -345 0 0 193 0 193 -168 167 c-93 92 -175 167 -183 167 -8
0 -94 -80 -192 -178 l-177 -177 0 -182 0 -182 -167 -3 c-92 -2 -245 -2 -340 0
l-173 3 0 181 0 182 -172 173 c-113 113 -179 173 -193 173 -14 0 -80 -60 -193
-173 l-172 -173 0 -182 0 -182 -344 0 -345 0 -3 190 -3 191 -171 169 c-98 99
-178 170 -189 170 -21 0 -329 -300 -351 -342 -11 -20 -14 -70 -14 -203 l0
-175 -339 0 -340 0 -3 190 -3 191 -171 169 c-93 94 -177 170 -185 170 -8 0
-94 -80 -192 -178z m3906 -1212 l157 0 0 -645 0 -645 -340 0 -340 0 0 645 0
645 163 3 c89 1 171 2 182 0 11 -1 91 -3 178 -3z m-4083 -643 l0 -644 -267 -6
c-148 -3 -298 -3 -335 0 l-68 6 0 643 0 644 335 0 335 0 0 -643z m1420 -2 l0
-645 -350 0 -350 0 0 645 0 645 350 0 350 0 0 -645z m1410 0 l0 -645 -350 0
-350 0 0 645 0 645 350 0 350 0 0 -645z m2828 -2 l2 -643 -350 0 -350 0 0 645
0 645 348 -2 347 -3 3 -642z m1412 2 l0 -645 -350 0 -350 0 0 645 0 645 350 0
350 0 0 -645z m-9880 -10 l0 -645 -347 2 -348 3 -3 643 -2 642 350 0 350 0 0
-645z m1410 0 l0 -645 -345 0 -345 0 0 645 0 645 345 0 345 0 0 -645z"/>
</g>
</svg>
